<svg viewBox="0 0 24 24" fill="none" xmlns="http://www.w3.org/2000/svg">
<path d="M18.53 9L13 3.47C12.8595 3.32931 12.6688 3.25018 12.47 3.25H8C7.27065 3.25 6.57118 3.53973 6.05546 4.05546C5.53973 4.57118 5.25 5.27065 5.25 6V18C5.25 18.7293 5.53973 19.4288 6.05546 19.9445C6.57118 20.4603 7.27065 20.75 8 20.75H16C16.7293 20.75 17.4288 20.4603 17.9445 19.9445C18.4603 19.4288 18.75 18.7293 18.75 18V9.5C18.7421 9.3116 18.6636 9.13309 18.53 9ZM13.25 5.81L16.19 8.75H13.25V5.81ZM16 19.25H8C7.66848 19.25 7.35054 19.1183 7.11612 18.8839C6.8817 18.6495 6.75 18.3315 6.75 18V6C6.75 5.66848 6.8817 5.35054 7.11612 5.11612C7.35054 4.8817 7.66848 4.75 8 4.75H11.75V9.5C11.7526 9.69811 11.8324 9.88737 11.9725 10.0275C12.1126 10.1676 12.3019 10.2474 12.5 10.25H17.25V18C17.25 18.3315 17.1183 18.6495 16.8839 18.8839C16.6495 19.1183 16.3315 19.25 16 19.25Z" fill="#000000"/>
<path d="M14.47 11.9101C14.312 11.7893 14.1134 11.7344 13.9158 11.7568C13.7183 11.7791 13.537 11.8771 13.41 12.0301L12 13.8001L10.59 12.0001C10.5243 11.9226 10.4441 11.8588 10.3537 11.8123C10.2634 11.7659 10.1648 11.7377 10.0636 11.7293C9.96242 11.721 9.86055 11.7326 9.76384 11.7636C9.66713 11.7946 9.57747 11.8444 9.49999 11.9101C9.42251 11.9757 9.35872 12.056 9.31227 12.1463C9.26581 12.2366 9.2376 12.3352 9.22925 12.4364C9.22089 12.5376 9.23255 12.6395 9.26356 12.7362C9.29457 12.8329 9.34433 12.9226 9.40999 13.0001L11 15.0001L9.40999 17.0001C9.28534 17.1565 9.22796 17.3561 9.25046 17.5549C9.27296 17.7537 9.37351 17.9354 9.52999 18.0601C9.68647 18.1847 9.88606 18.2421 10.0848 18.2196C10.2836 18.1971 10.4653 18.0965 10.59 17.9401L12 16.2001L13.41 18.0001C13.4818 18.0871 13.5719 18.1573 13.6738 18.2057C13.7758 18.2541 13.8871 18.2795 14 18.2801C14.1534 18.2928 14.3069 18.258 14.4398 18.1804C14.5728 18.1029 14.6786 17.9863 14.743 17.8466C14.8074 17.7068 14.8273 17.5506 14.7999 17.3992C14.7726 17.2478 14.6993 17.1084 14.59 17.0001L13 15.0001L14.63 13.0001C14.6922 12.9184 14.7375 12.8252 14.7632 12.7258C14.7889 12.6264 14.7944 12.5229 14.7795 12.4214C14.7646 12.3198 14.7295 12.2223 14.6764 12.1345C14.6232 12.0466 14.5531 11.9703 14.47 11.9101Z" fill="#000000"/>
</svg>