<?xml version="1.0" encoding="utf-8"?><!-- Uploaded to: SVG Repo, www.svgrepo.com, Generator: SVG Repo Mixer Tools -->
<svg width="800px" height="800px" viewBox="0 0 24 24" fill="none" xmlns="http://www.w3.org/2000/svg">
<path d="M15.25 15.75C14.84 15.75 14.5 16.09 14.5 16.5V18C14.5 18.69 13.94 19.25 13.25 19.25H5.75C5.06 19.25 4.5 18.69 4.5 18V6C4.5 5.31 5.06 4.75 5.75 4.75H9V9.5C9 9.91 9.34 10.25 9.75 10.25H14.5V11.5C14.5 11.91 14.84 12.25 15.25 12.25C15.66 12.25 16 11.91 16 11.5V9.5C16 9.3 15.92 9.11 15.78 8.97L10.28 3.47C10.14 3.33 9.95 3.25 9.75 3.25H5.75C4.23 3.25 3 4.48 3 6V18C3 19.52 4.23 20.75 5.75 20.75H13.25C14.77 20.75 16 19.52 16 18V16.5C16 16.09 15.66 15.75 15.25 15.75ZM10.5 5.81L13.44 8.75H10.5V5.81ZM20.94 14.29C20.9 14.38 20.85 14.46 20.78 14.53L17.78 17.53C17.63 17.68 17.44 17.75 17.25 17.75C17.06 17.75 16.87 17.68 16.72 17.53C16.43 17.24 16.43 16.76 16.72 16.47L18.44 14.75H9.75C9.34 14.75 9 14.41 9 14C9 13.59 9.34 13.25 9.75 13.25H18.44L16.72 11.53C16.43 11.24 16.43 10.76 16.72 10.47C17.01 10.18 17.49 10.18 17.78 10.47L20.78 13.47C20.85 13.54 20.9 13.62 20.94 13.71C21.02 13.89 21.02 14.1 20.94 14.28V14.29Z" fill="#000000"/>
</svg>